<?xml version="1.0" standalone="no"?>
<!DOCTYPE svg PUBLIC "-//W3C//DTD SVG 20010904//EN"
 "http://www.w3.org/TR/2001/REC-SVG-20010904/DTD/svg10.dtd">
<svg version="1.0" xmlns="http://www.w3.org/2000/svg"
 width="256.000000pt" height="256.000000pt" viewBox="0 0 256.000000 256.000000"
 preserveAspectRatio="xMidYMid meet">

<g transform="translate(0.000000,256.000000) scale(0.100000,-0.100000)"
fill="#000000" stroke="none">
<path d="M0 1280 l0 -1280 1280 0 1280 0 0 1280 0 1280 -1280 0 -1280 0 0
-1280z m1812 803 c128 -70 162 -213 90 -367 -25 -53 -53 -90 -116 -152 -70
-69 -100 -90 -187 -133 -57 -27 -117 -53 -132 -57 -28 -6 -28 -6 -22 32 11 65
35 131 53 146 9 8 40 27 67 43 112 64 215 194 215 271 0 17 -9 43 -21 58 -17
21 -29 26 -67 26 -138 0 -227 -162 -296 -537 -14 -77 -26 -143 -26 -145 0 -2
42 -2 94 0 91 4 96 3 120 -21 34 -34 35 -85 4 -114 -19 -17 -42 -22 -128 -28
-397 -25 -669 -178 -670 -375 0 -56 17 -91 54 -108 93 -45 198 65 277 292 22
62 34 83 55 94 32 17 144 29 144 16 0 -5 -9 -42 -20 -81 -48 -172 -132 -337
-210 -406 -150 -136 -367 -106 -438 61 -62 145 -22 294 114 429 84 83 203 147
342 185 88 23 102 35 102 94 0 23 -3 24 -65 24 -71 0 -194 22 -247 44 -58 25
-84 68 -67 113 21 57 62 65 149 32 37 -14 88 -23 157 -26 l102 -6 6 29 c58
255 114 389 208 491 101 110 242 140 359 76z"/>
</g>
</svg>
